<svg width="231" height="35" viewBox="0 0 231 35" fill="none" xmlns="http://www.w3.org/2000/svg">
<path d="M9.6108 34H0.0227273L10.8253 1.27273H22.9702L33.7727 34H24.1847L17.0256 10.2855H16.7699L9.6108 34ZM7.82102 21.0881H25.8466V27.7358H7.82102V21.0881ZM65.9407 13.5455H56.9279C56.864 12.7997 56.6935 12.1232 56.4165 11.516C56.1502 10.9087 55.7773 10.3867 55.2979 9.94993C54.8292 9.50248 54.2592 9.16158 53.5881 8.9272C52.9169 8.68217 52.1552 8.55966 51.3029 8.55966C49.8114 8.55966 48.549 8.92187 47.5156 9.64631C46.4929 10.3707 45.7152 11.4094 45.1825 12.7624C44.6605 14.1154 44.3995 15.7401 44.3995 17.6364C44.3995 19.6392 44.6658 21.3171 45.1985 22.6701C45.7418 24.0124 46.5249 25.0245 47.5476 25.7063C48.5703 26.3775 49.8008 26.7131 51.239 26.7131C52.0593 26.7131 52.7944 26.6119 53.4442 26.4094C54.0941 26.1964 54.6587 25.8928 55.1381 25.4986C55.6175 25.1044 56.0064 24.6303 56.3047 24.0763C56.6136 23.5117 56.8214 22.8778 56.9279 22.1747L65.9407 22.2386C65.8342 23.6236 65.4453 25.0352 64.7741 26.4734C64.103 27.9009 63.1495 29.2219 61.9137 30.4364C60.6886 31.6403 59.1705 32.6097 57.3594 33.3448C55.5483 34.0799 53.4442 34.4474 51.0472 34.4474C48.043 34.4474 45.3477 33.8029 42.9613 32.5138C40.5856 31.2248 38.7053 29.3285 37.3203 26.8249C35.946 24.3214 35.2589 21.2585 35.2589 17.6364C35.2589 13.9929 35.962 10.9247 37.3683 8.43182C38.7745 5.92827 40.6708 4.03729 43.0572 2.75888C45.4435 1.46981 48.1069 0.825283 51.0472 0.825283C53.114 0.825283 55.0156 1.1076 56.7521 1.67223C58.4886 2.23686 60.0121 3.0625 61.3224 4.14915C62.6328 5.22514 63.6875 6.55149 64.4865 8.1282C65.2855 9.7049 65.7702 11.5107 65.9407 13.5455ZM69.0768 8.43182V1.27273H97.5214V8.43182H87.6776V34H78.9205V8.43182H69.0768ZM109.75 1.27273V34H100.865V1.27273H109.75ZM122.91 1.27273L129.621 24.348H129.877L136.589 1.27273H146.624L135.822 34H123.677L112.874 1.27273H122.91ZM152.916 34H143.328L154.131 1.27273H166.276L177.078 34H167.49L160.331 10.2855H160.076L152.916 34ZM151.127 21.0881H169.152V27.7358H151.127V21.0881ZM175.205 8.43182V1.27273H203.649V8.43182H193.806V34H185.048V8.43182H175.205ZM206.993 34V1.27273H230.58V8.43182H215.878V14.0568H229.365V21.2159H215.878V26.8409H230.516V34H206.993Z" fill="#442222"/>
</svg>
