<svg width="150" height="59" viewBox="0 0 150 59" fill="none" xmlns="http://www.w3.org/2000/svg">
<path d="M20.5904 8.82031H15.9242C15.839 8.21662 15.665 7.6804 15.4022 7.21165C15.1394 6.73579 14.802 6.33097 14.3901 5.99716C13.9782 5.66335 13.5023 5.40767 12.9625 5.23011C12.4299 5.05256 11.851 4.96378 11.226 4.96378C10.0968 4.96378 9.1131 5.24432 8.27504 5.8054C7.43697 6.35937 6.78711 7.16903 6.32546 8.23438C5.86381 9.29261 5.63299 10.5781 5.63299 12.0909C5.63299 13.6463 5.86381 14.9531 6.32546 16.0114C6.79421 17.0696 7.44762 17.8686 8.28569 18.4084C9.12376 18.9482 10.0932 19.218 11.1941 19.218C11.812 19.218 12.3837 19.1364 12.9093 18.973C13.4419 18.8097 13.9142 18.5717 14.3262 18.2592C14.7381 17.9396 15.079 17.5526 15.3489 17.098C15.6259 16.6435 15.8176 16.125 15.9242 15.5426L20.5904 15.5639C20.4696 16.5653 20.1678 17.5312 19.6848 18.4616C19.209 19.3849 18.5662 20.2124 17.7566 20.9439C16.954 21.6683 15.9952 22.2436 14.8801 22.6697C13.7722 23.0888 12.5186 23.2983 11.1195 23.2983C9.17347 23.2983 7.43342 22.858 5.89933 21.9773C4.37234 21.0966 3.16495 19.8217 2.27717 18.1527C1.39648 16.4837 0.956143 14.4631 0.956143 12.0909C0.956143 9.71165 1.40359 7.6875 2.29847 6.01847C3.19336 4.34943 4.40785 3.07812 5.94194 2.20455C7.47603 1.32386 9.20188 0.883522 11.1195 0.883522C12.3837 0.883522 13.5556 1.06108 14.6351 1.41619C15.7218 1.77131 16.6841 2.28977 17.5222 2.97159C18.3603 3.64631 19.0421 4.47372 19.5676 5.45383C20.1003 6.43395 20.4412 7.55611 20.5904 8.82031ZM43.948 12.0909C43.948 14.4702 43.497 16.4943 42.595 18.1634C41.7001 19.8324 40.4785 21.1072 38.9302 21.9879C37.389 22.8615 35.6561 23.2983 33.7314 23.2983C31.7924 23.2983 30.0524 22.858 28.5112 21.9773C26.97 21.0966 25.752 19.8217 24.8571 18.1527C23.9622 16.4837 23.5147 14.4631 23.5147 12.0909C23.5147 9.71165 23.9622 7.6875 24.8571 6.01847C25.752 4.34943 26.97 3.07812 28.5112 2.20455C30.0524 1.32386 31.7924 0.883522 33.7314 0.883522C35.6561 0.883522 37.389 1.32386 38.9302 2.20455C40.4785 3.07812 41.7001 4.34943 42.595 6.01847C43.497 7.6875 43.948 9.71165 43.948 12.0909ZM39.2711 12.0909C39.2711 10.5497 39.0403 9.25 38.5787 8.19176C38.1241 7.13352 37.4814 6.33097 36.6504 5.78409C35.8194 5.23722 34.8464 4.96378 33.7314 4.96378C32.6163 4.96378 31.6433 5.23722 30.8123 5.78409C29.9814 6.33097 29.335 7.13352 28.8734 8.19176C28.4189 9.25 28.1916 10.5497 28.1916 12.0909C28.1916 13.6321 28.4189 14.9318 28.8734 15.9901C29.335 17.0483 29.9814 17.8509 30.8123 18.3977C31.6433 18.9446 32.6163 19.218 33.7314 19.218C34.8464 19.218 35.8194 18.9446 36.6504 18.3977C37.4814 17.8509 38.1241 17.0483 38.5787 15.9901C39.0403 14.9318 39.2711 13.6321 39.2711 12.0909ZM65.6143 1.18182V23H61.63L52.1378 9.26776H51.978V23H47.3651V1.18182H51.4134L60.831 14.9034H61.0227V1.18182H65.6143ZM87.6749 1.18182V23H83.6905L74.1983 9.26776H74.0385V23H69.4256V1.18182H73.4739L82.8915 14.9034H83.0833V1.18182H87.6749ZM91.4862 23V1.18182H106.188V4.98508H96.0991V10.1839H105.431V13.9872H96.0991V19.1967H106.23V23H91.4862ZM129.106 8.82031H124.44C124.355 8.21662 124.181 7.6804 123.918 7.21165C123.655 6.73579 123.318 6.33097 122.906 5.99716C122.494 5.66335 122.018 5.40767 121.478 5.23011C120.945 5.05256 120.367 4.96378 119.742 4.96378C118.612 4.96378 117.629 5.24432 116.791 5.8054C115.953 6.35937 115.303 7.16903 114.841 8.23438C114.379 9.29261 114.149 10.5781 114.149 12.0909C114.149 13.6463 114.379 14.9531 114.841 16.0114C115.31 17.0696 115.963 17.8686 116.801 18.4084C117.639 18.9482 118.609 19.218 119.71 19.218C120.328 19.218 120.899 19.1364 121.425 18.973C121.958 18.8097 122.43 18.5717 122.842 18.2592C123.254 17.9396 123.595 17.5526 123.865 17.098C124.142 16.6435 124.333 16.125 124.44 15.5426L129.106 15.5639C128.985 16.5653 128.683 17.5312 128.2 18.4616C127.725 19.3849 127.082 20.2124 126.272 20.9439C125.47 21.6683 124.511 22.2436 123.396 22.6697C122.288 23.0888 121.034 23.2983 119.635 23.2983C117.689 23.2983 115.949 22.858 114.415 21.9773C112.888 21.0966 111.681 19.8217 110.793 18.1527C109.912 16.4837 109.472 14.4631 109.472 12.0909C109.472 9.71165 109.919 7.6875 110.814 6.01847C111.709 4.34943 112.923 3.07812 114.458 2.20455C115.992 1.32386 117.718 0.883522 119.635 0.883522C120.899 0.883522 122.071 1.06108 123.151 1.41619C124.237 1.77131 125.2 2.28977 126.038 2.97159C126.876 3.64631 127.558 4.47372 128.083 5.45383C128.616 6.43395 128.957 7.55611 129.106 8.82031ZM131.583 4.98508V1.18182H149.502V4.98508H142.822V23H138.263V4.98508H131.583ZM33.8153 59V37.1818H42.551C44.1562 37.1818 45.4949 37.4197 46.5674 37.8956C47.6398 38.3714 48.4459 39.032 48.9857 39.8771C49.5255 40.7152 49.7954 41.6811 49.7954 42.7749C49.7954 43.6271 49.6249 44.3764 49.284 45.0227C48.9431 45.6619 48.4743 46.1875 47.8778 46.5994C47.2883 47.0043 46.6135 47.2919 45.8536 47.4624V47.6754C46.6846 47.7109 47.4623 47.9453 48.1867 48.3786C48.9182 48.8118 49.5113 49.419 49.9658 50.2003C50.4204 50.9744 50.6476 51.8977 50.6476 52.9702C50.6476 54.1278 50.36 55.1612 49.7847 56.0703C49.2165 56.9723 48.3749 57.6861 47.2599 58.2116C46.1448 58.7372 44.7705 59 43.137 59H33.8153ZM38.4282 55.2287H42.1888C43.4743 55.2287 44.4118 54.9837 45.0013 54.4936C45.5908 53.9964 45.8856 53.3359 45.8856 52.5121C45.8856 51.9084 45.74 51.3757 45.4488 50.9141C45.1576 50.4524 44.7421 50.0902 44.2023 49.8274C43.6697 49.5646 43.034 49.4332 42.2954 49.4332H38.4282V55.2287ZM38.4282 46.3118H41.8479C42.48 46.3118 43.0411 46.2017 43.5312 45.9815C44.0283 45.7543 44.4189 45.4347 44.703 45.0227C44.9942 44.6108 45.1398 44.1172 45.1398 43.5419C45.1398 42.7536 44.8593 42.1179 44.2982 41.6349C43.7442 41.152 42.9559 40.9105 41.9332 40.9105H38.4282V46.3118ZM57.4099 59H52.4667L59.9987 37.1818H65.9433L73.4646 59H68.5214L63.0562 42.1676H62.8857L57.4099 59ZM57.1009 50.424H68.7771V54.0249H57.1009V50.424ZM94.3399 37.1818V59H90.3556L80.8634 45.2678H80.7036V59H76.0906V37.1818H80.1389L89.5566 50.9034H89.7483V37.1818H94.3399ZM105.886 59H98.1512V37.1818H105.949C108.144 37.1818 110.033 37.6186 111.617 38.4922C113.201 39.3587 114.419 40.6051 115.271 42.2315C116.131 43.858 116.56 45.804 116.56 48.0696C116.56 50.3423 116.131 52.2955 115.271 53.929C114.419 55.5625 113.194 56.8161 111.596 57.6896C110.005 58.5632 108.101 59 105.886 59ZM102.764 55.0476H105.694C107.057 55.0476 108.204 54.8061 109.135 54.3232C110.072 53.8331 110.775 53.0767 111.244 52.054C111.72 51.0241 111.958 49.696 111.958 48.0696C111.958 46.4574 111.72 45.1399 111.244 44.1172C110.775 43.0945 110.076 42.3416 109.146 41.8587C108.215 41.3757 107.068 41.1342 105.704 41.1342H102.764V55.0476Z" fill="#442222"/>
</svg>
