<svg width="158" height="56" viewBox="0 0 158 56" fill="none" xmlns="http://www.w3.org/2000/svg">
<path d="M0.580256 19V0.818181H12.8317V3.98757H4.42436V8.31996H12.2013V11.4893H4.42436V15.8306H12.8672V19H0.580256ZM15.8879 0.818181H20.6286L25.6357 13.0341H25.8488L30.8559 0.818181H35.5967V19H31.868V7.16584H31.7171L27.0118 18.9112H24.4727L19.7675 7.12145H19.6166V19H15.8879V0.818181ZM38.7638 19V0.818181H51.0153V3.98757H42.608V8.31996H50.3849V11.4893H42.608V15.8306H51.0508V19H38.7638ZM54.0715 19V0.818181H61.2448C62.6179 0.818181 63.7897 1.0638 64.7604 1.55504C65.7369 2.04036 66.4797 2.72988 66.9887 3.62358C67.5036 4.51136 67.7611 5.55599 67.7611 6.75746C67.7611 7.96484 67.5007 9.00355 66.9798 9.87358C66.459 10.7377 65.7044 11.4006 64.716 11.8622C63.7335 12.3239 62.5439 12.5547 61.1471 12.5547H56.3442V9.4652H60.5257C61.2596 9.4652 61.8692 9.36458 62.3545 9.16335C62.8398 8.96212 63.2008 8.66027 63.4376 8.25781C63.6802 7.85535 63.8016 7.35523 63.8016 6.75746C63.8016 6.15376 63.6802 5.64477 63.4376 5.23047C63.2008 4.81617 62.8369 4.50248 62.3456 4.28942C61.8603 4.07043 61.2477 3.96094 60.5079 3.96094H57.9156V19H54.0715ZM63.8904 10.7259L68.4092 19H64.1656L59.7444 10.7259H63.8904ZM82.5338 6.69531C82.4095 6.26326 82.2349 5.88151 82.01 5.55007C81.7851 5.21271 81.5099 4.92862 81.1844 4.6978C80.8648 4.46106 80.4978 4.28054 80.0835 4.15625C79.6752 4.03196 79.2224 3.96982 78.7252 3.96982C77.796 3.96982 76.9793 4.20064 76.2749 4.66229C75.5766 5.12393 75.032 5.79569 74.6414 6.67756C74.2508 7.5535 74.0555 8.62476 74.0555 9.89134C74.0555 11.1579 74.2478 12.2351 74.6325 13.1229C75.0173 14.0107 75.5618 14.6883 76.2661 15.1559C76.9704 15.6175 77.8019 15.8484 78.7607 15.8484C79.6308 15.8484 80.3736 15.6945 80.9891 15.3867C81.6105 15.073 82.084 14.6321 82.4095 14.0639C82.741 13.4957 82.9067 12.824 82.9067 12.0487L83.6879 12.1641H79.0004V9.26989H86.6088V11.5604C86.6088 13.1584 86.2714 14.5315 85.5967 15.6797C84.922 16.822 83.9927 17.7038 82.809 18.3253C81.6253 18.9408 80.27 19.2486 78.743 19.2486C77.0384 19.2486 75.541 18.8728 74.2508 18.1211C72.9606 17.3635 71.9544 16.2893 71.2323 14.8984C70.5162 13.5017 70.1581 11.8445 70.1581 9.92685C70.1581 8.45312 70.3712 7.1392 70.7973 5.98508C71.2294 4.82505 71.8331 3.84257 72.6084 3.03764C73.3837 2.23272 74.2863 1.62015 75.3161 1.19993C76.346 0.77971 77.4616 0.569602 78.6631 0.569602C79.6929 0.569602 80.6517 0.720525 81.5395 1.02237C82.4273 1.3183 83.2145 1.73852 83.901 2.28303C84.5935 2.82753 85.1587 3.47561 85.5967 4.22727C86.0347 4.97301 86.3158 5.79569 86.4401 6.69531H82.5338ZM89.4963 19V0.818181H101.748V3.98757H93.3404V8.31996H101.117V11.4893H93.3404V15.8306H101.783V19H89.4963ZM120.012 0.818181V19H116.691L108.781 7.55646H108.648V19H104.804V0.818181H108.177L116.025 12.2528H116.185V0.818181H120.012ZM139.23 7.18359H135.341C135.27 6.68052 135.125 6.23366 134.906 5.84304C134.687 5.4465 134.406 5.10914 134.063 4.83097C133.72 4.55279 133.323 4.33972 132.873 4.19176C132.43 4.0438 131.947 3.96982 131.426 3.96982C130.485 3.96982 129.666 4.2036 128.967 4.67116C128.269 5.13281 127.727 5.80753 127.343 6.69531C126.958 7.57718 126.765 8.64844 126.765 9.90909C126.765 11.2053 126.958 12.2943 127.343 13.1761C127.733 14.058 128.278 14.7238 128.976 15.1737C129.674 15.6235 130.482 15.8484 131.4 15.8484C131.915 15.8484 132.391 15.7803 132.829 15.6442C133.273 15.508 133.666 15.3098 134.01 15.0494C134.353 14.783 134.637 14.4605 134.862 14.0817C135.093 13.7029 135.253 13.2708 135.341 12.7855L139.23 12.8033C139.129 13.6378 138.878 14.4427 138.475 15.218C138.079 15.9875 137.543 16.677 136.868 17.2866C136.2 17.8903 135.401 18.3697 134.471 18.7248C133.548 19.074 132.503 19.2486 131.338 19.2486C129.716 19.2486 128.266 18.8816 126.987 18.1477C125.715 17.4138 124.709 16.3514 123.969 14.9606C123.235 13.5697 122.868 11.8859 122.868 9.90909C122.868 7.92637 123.241 6.23958 123.987 4.84872C124.732 3.45786 125.744 2.39844 127.023 1.67045C128.301 0.936553 129.74 0.569602 131.338 0.569602C132.391 0.569602 133.368 0.717566 134.267 1.01349C135.173 1.30942 135.975 1.74148 136.673 2.30966C137.372 2.87192 137.94 3.56143 138.378 4.3782C138.822 5.19496 139.106 6.13009 139.23 7.18359ZM140.921 0.818181H145.227L149.373 8.64844H149.55L153.696 0.818181H158.002L151.37 12.5724V19H147.553V12.5724L140.921 0.818181ZM20.147 40.8203H15.4808C15.3956 40.2166 15.2216 39.6804 14.9588 39.2116C14.696 38.7358 14.3587 38.331 13.9467 37.9972C13.5348 37.6634 13.0589 37.4077 12.5192 37.2301C11.9865 37.0526 11.4077 36.9638 10.7827 36.9638C9.65341 36.9638 8.66974 37.2443 7.83168 37.8054C6.99361 38.3594 6.34375 39.169 5.8821 40.2344C5.42045 41.2926 5.18963 42.5781 5.18963 44.0909C5.18963 45.6463 5.42045 46.9531 5.8821 48.0114C6.35085 49.0696 7.00426 49.8686 7.84233 50.4084C8.6804 50.9482 9.64986 51.218 10.7507 51.218C11.3686 51.218 11.9403 51.1364 12.4659 50.973C12.9986 50.8097 13.4709 50.5717 13.8828 50.2592C14.2947 49.9396 14.6357 49.5526 14.9055 49.098C15.1825 48.6435 15.3743 48.125 15.4808 47.5426L20.147 47.5639C20.0263 48.5653 19.7244 49.5312 19.2415 50.4616C18.7656 51.3849 18.1229 52.2124 17.3132 52.9439C16.5107 53.6683 15.5518 54.2436 14.4368 54.6697C13.3288 55.0888 12.0753 55.2983 10.6761 55.2983C8.73011 55.2983 6.99006 54.858 5.45597 53.9773C3.92898 53.0966 2.72159 51.8217 1.83381 50.1527C0.953125 48.4837 0.512784 46.4631 0.512784 44.0909C0.512784 41.7116 0.960227 39.6875 1.85511 38.0185C2.75 36.3494 3.96449 35.0781 5.49858 34.2045C7.03267 33.3239 8.75852 32.8835 10.6761 32.8835C11.9403 32.8835 13.1122 33.0611 14.1918 33.4162C15.2784 33.7713 16.2408 34.2898 17.0788 34.9716C17.9169 35.6463 18.5987 36.4737 19.1243 37.4538C19.657 38.4339 19.9979 39.5561 20.147 40.8203ZM43.5046 44.0909C43.5046 46.4702 43.0536 48.4943 42.1516 50.1634C41.2567 51.8324 40.0352 53.1072 38.4869 53.9879C36.9457 54.8615 35.2127 55.2983 33.288 55.2983C31.3491 55.2983 29.609 54.858 28.0678 53.9773C26.5266 53.0966 25.3086 51.8217 24.4137 50.1527C23.5188 48.4837 23.0714 46.4631 23.0714 44.0909C23.0714 41.7116 23.5188 39.6875 24.4137 38.0185C25.3086 36.3494 26.5266 35.0781 28.0678 34.2045C29.609 33.3239 31.3491 32.8835 33.288 32.8835C35.2127 32.8835 36.9457 33.3239 38.4869 34.2045C40.0352 35.0781 41.2567 36.3494 42.1516 38.0185C43.0536 39.6875 43.5046 41.7116 43.5046 44.0909ZM38.8278 44.0909C38.8278 42.5497 38.5969 41.25 38.1353 40.1918C37.6808 39.1335 37.038 38.331 36.207 37.7841C35.3761 37.2372 34.4031 36.9638 33.288 36.9638C32.1729 36.9638 31.1999 37.2372 30.369 37.7841C29.538 38.331 28.8917 39.1335 28.43 40.1918C27.9755 41.25 27.7482 42.5497 27.7482 44.0909C27.7482 45.6321 27.9755 46.9318 28.43 47.9901C28.8917 49.0483 29.538 49.8509 30.369 50.3977C31.1999 50.9446 32.1729 51.218 33.288 51.218C34.4031 51.218 35.3761 50.9446 36.207 50.3977C37.038 49.8509 37.6808 49.0483 38.1353 47.9901C38.5969 46.9318 38.8278 45.6321 38.8278 44.0909ZM65.171 33.1818V55H61.1866L51.6944 41.2678H51.5346V55H46.9217V33.1818H50.97L60.3876 46.9034H60.5794V33.1818H65.171ZM68.1513 36.9851V33.1818H86.0703V36.9851H79.3906V55H74.831V36.9851H68.1513ZM90.1159 55H85.1728L92.7047 33.1818H98.6493L106.171 55H101.227L95.7623 38.1676H95.5918L90.1159 55ZM89.807 46.424H101.483V50.0249H89.807V46.424ZM127.022 40.8203H122.356C122.271 40.2166 122.097 39.6804 121.834 39.2116C121.571 38.7358 121.234 38.331 120.822 37.9972C120.41 37.6634 119.934 37.4077 119.394 37.2301C118.862 37.0526 118.283 36.9638 117.658 36.9638C116.528 36.9638 115.545 37.2443 114.707 37.8054C113.869 38.3594 113.219 39.169 112.757 40.2344C112.295 41.2926 112.065 42.5781 112.065 44.0909C112.065 45.6463 112.295 46.9531 112.757 48.0114C113.226 49.0696 113.879 49.8686 114.717 50.4084C115.555 50.9482 116.525 51.218 117.626 51.218C118.244 51.218 118.815 51.1364 119.341 50.973C119.874 50.8097 120.346 50.5717 120.758 50.2592C121.17 49.9396 121.511 49.5526 121.781 49.098C122.058 48.6435 122.249 48.125 122.356 47.5426L127.022 47.5639C126.901 48.5653 126.599 49.5312 126.116 50.4616C125.641 51.3849 124.998 52.2124 124.188 52.9439C123.386 53.6683 122.427 54.2436 121.312 54.6697C120.204 55.0888 118.95 55.2983 117.551 55.2983C115.605 55.2983 113.865 54.858 112.331 53.9773C110.804 53.0966 109.597 51.8217 108.709 50.1527C107.828 48.4837 107.388 46.4631 107.388 44.0909C107.388 41.7116 107.835 39.6875 108.73 38.0185C109.625 36.3494 110.839 35.0781 112.374 34.2045C113.908 33.3239 115.634 32.8835 117.551 32.8835C118.815 32.8835 119.987 33.0611 121.067 33.4162C122.153 33.7713 123.116 34.2898 123.954 34.9716C124.792 35.6463 125.474 36.4737 125.999 37.4538C126.532 38.4339 126.873 39.5561 127.022 40.8203ZM129.499 36.9851V33.1818H147.418V36.9851H140.738V55H136.179V36.9851H129.499Z" fill="#442222"/>
</svg>
